<svg xmlns="http://www.w3.org/2000/svg" xmlns:xlink="http://www.w3.org/1999/xlink" xmlns:lucid="lucid" width="1500" height="440"><g transform="translate(-140 -120)" lucid:page-tab-id="0_0"><path d="M1460 160h160v120c-26.72-20.04-43.36-20.04-53.44-20.04-16 0-37.28 20.04-53.28 20.04-9.92 0-26.72 0-53.28-20.04z" stroke="#000" stroke-width="2" fill="#fff"/><use xlink:href="#a" transform="matrix(1,0,0,1,1465,165) translate(17.52499999999999 48.15)"/><use xlink:href="#b" transform="matrix(1,0,0,1,1465,165) translate(65.925 48.15)"/><path d="M300 270h160v40H300z" stroke="#000" stroke-width="2" fill="#fff"/><use xlink:href="#c" transform="matrix(1,0,0,1,305,275) translate(7.824999999999989 18.275)"/><path d="M1000 180h160v40h-160z" stroke="#000" stroke-width="2" fill="#fff"/><use xlink:href="#d" transform="matrix(1,0,0,1,1005,185) translate(20.599999999999994 18.275)"/><path d="M1000 360h200v40h-200z" stroke="#000" stroke-width="2" fill="#fff"/><use xlink:href="#e" transform="matrix(1,0,0,1,1005,365) translate(5.675000000000011 18.275)"/><path d="M620 270h200v40H620z" stroke="#000" stroke-width="2" fill="#fff"/><use xlink:href="#f" transform="matrix(1,0,0,1,625,275) translate(4.200000000000003 18.275)"/><path d="M500 270h80v40h-80z" stroke="#000" stroke-width="2" fill="#fff"/><use xlink:href="#g" transform="matrix(1,0,0,1,505,275) translate(13 18.275)"/><path d="M1272 140h96l32 60-32 60h-96l-32-60z" stroke="#000" stroke-width="2" fill="#fff"/><use xlink:href="#h" transform="matrix(1,0,0,1,1245,145) translate(38.07999999999999 59.0875)"/><path d="M1600 528c0 6.63-26.86 12-60 12s-60-5.37-60-12v-96c0-6.63 26.86-12 60-12s60 5.37 60 12z" stroke="#000" stroke-width="2" fill="#fff"/><path d="M1600 432c0 6.63-26.86 12-60 12s-60-5.37-60-12" stroke="#000" stroke-width="2" fill="none"/><use xlink:href="#i" transform="matrix(1,0,0,1,1485,449) translate(11.099999999999994 46.65)"/><path d="M1460 330h160v60h-160z" stroke="#000" stroke-width="2" fill="#fff"/><use xlink:href="#j" transform="matrix(1,0,0,1,1465,335) translate(52.05 30.025)"/><path d="M1272 320h96l32 60-32 60h-96l-32-60z" stroke="#000" stroke-width="2" fill="#fff"/><use xlink:href="#k" transform="matrix(1,0,0,1,1245,325) translate(7.404999999999996 59.0875)"/><use xlink:href="#l" transform="matrix(1,0,0,1,1245,325) translate(88.805 59.0875)"/><path d="M219.75 230.9c0 10.9-8.84 19.74-19.75 19.74-10.9 0-19.75-8.85-19.75-19.75 0-10.92 8.84-19.76 19.75-19.76 10.9 0 19.75 8.84 19.75 19.75z" stroke="#000" stroke-width="2" fill="#fff"/><path d="M200 250.64v55.3l40 63.2m-40-63.2l-40 63.2m0-98.75h80" stroke="#000" stroke-width="2" fill="none"/><path d="M160 211.14h80v180h-80z" fill="none"/><use xlink:href="#m" transform="matrix(1,0,0,1,80,369.1357353462443) translate(103.075 14.6)"/><path d="M940 265l80 25-80 25-80-25z" stroke="#000" stroke-width="2" fill="#fff"/><use xlink:href="#n" transform="matrix(1,0,0,1,865,270) translate(56.58 24.65)"/><path d="M202 290h78.5M202.03 290H198" stroke="#000" stroke-width="2" fill="none"/><path d="M295.76 290l-14.26 4.64v-9.28z" stroke="#000" stroke-width="2"/><path d="M462 290h18.5" stroke="#000" stroke-width="2" fill="none"/><path d="M462.03 291H461v-2h1.03z"/><path d="M495.76 290l-14.26 4.64v-9.28z" stroke="#000" stroke-width="2"/><path d="M582 290h18.5" stroke="#000" stroke-width="2" fill="none"/><path d="M582.03 291H581v-2h1.03z"/><path d="M615.76 290l-14.26 4.64v-9.28z" stroke="#000" stroke-width="2"/><path d="M822 290h16.15" stroke="#000" stroke-width="2" fill="none"/><path d="M822.03 291H821v-2h1.03z"/><path d="M853.4 290l-14.25 4.64v-9.28z" stroke="#000" stroke-width="2"/><path d="M980.5 379v2h-27.45v-2zM941 366.72h-2v-49.67h2z"/><path d="M941 317.07h-2v-1.33l1 .3 1-.3zM995.76 380l-14.26 4.64v-9.28z"/><path d="M999 380l-18.5 6v-12zm-16.5 3.26l10.03-3.26-10.03-3.26z"/><use xlink:href="#o" transform="matrix(1,0,0,1,926.95,366.72384545669496) translate(0 14.4)"/><path d="M1162 200h58.36" stroke="#000" stroke-width="2" fill="none"/><path d="M1162.03 201H1161v-2h1.03z"/><path d="M1235.63 200l-14.27 4.64v-9.28z" stroke="#000" stroke-width="2"/><path d="M1320 262v33h220v15.5" stroke="#000" stroke-width="2" fill="none"/><path d="M1321 262.03h-2V261h2z"/><path d="M1540 325.76l-4.64-14.26h9.28z" stroke="#000" stroke-width="2"/><path d="M1402.13 200h27.94v20h10.43" stroke="#000" stroke-width="2" fill="none"/><path d="M1402.16 201h-1.56l.53-1-.53-1h1.56z"/><path d="M1455.76 220l-14.26 4.64v-9.28z" stroke="#000" stroke-width="2"/><path d="M1540 392v8.5" stroke="#000" stroke-width="2" fill="none"/><path d="M1541 392.03h-2V391h2z"/><path d="M1540 415.76l-4.64-14.26h9.28z" stroke="#000" stroke-width="2"/><path d="M1402.13 380h27.94v-20h10.43" stroke="#000" stroke-width="2" fill="none"/><path d="M1402.16 381h-1.56l.53-1-.53-1h1.56z"/><path d="M1455.76 360l-14.26 4.64v-9.28z" stroke="#000" stroke-width="2"/><path d="M941 262.95h-2v-49.67h2zM980.5 201h-29.52v-2h29.52z"/><path d="M941 264.26l-1-.3-1 .3v-1.33h2zM995.76 200l-14.26 4.64v-9.28z"/><path d="M999 200l-18.5 6v-12zm-16.5 3.26l10.03-3.26-10.03-3.26z"/><use xlink:href="#p" transform="matrix(1,0,0,1,929.025,191.676154543305) translate(0 14.4)"/><path d="M1202 380h18.36" stroke="#000" stroke-width="2" fill="none"/><path d="M1202.03 381H1201v-2h1.03z"/><path d="M1235.63 380l-14.27 4.64v-9.28z" stroke="#000" stroke-width="2"/><defs><path d="M130-224c-62 0-78 43-78 106 0 64 16 108 78 108s78-44 78-108c0-63-16-106-78-106zM145 3C61 9 15-34 15-118c0-80 37-120 115-120 77 0 115 42 115 120 1 59-21 95-62 112 19 19 30 53 71 46v12c-30 12-67 2-84-19" id="q"/><path d="M124-13C89 8 26 15 26-45v-108c-8-3-24 2-21-12h50v118c-3 37 42 32 69 25v-131l-25-4v-8h54v153c8 3 24-2 21 12h-48" id="r"/><path d="M47-200c-23 0-25-39 0-38 13 0 18 7 20 19-1 11-8 19-20 19zM65-12l28 4v8H8v-8l28-4v-141l-24-4v-8h53v153" id="s"/><path d="M45-84c0 64 52 80 104 63 1 25-30 25-55 25-56 0-80-32-80-88 0-76 62-98 131-80v46h-10c-5-15-4-31-23-35-47-10-67 21-67 69" id="t"/><path d="M60-80l68-73c-7-3-20 0-17-12h58c3 13-13 9-20 12l-47 48 60 93c7 3 21-1 18 12h-68c-3-12 9-9 15-12L82-83 60-60v48c7 3 21-1 18 12H10v-8l21-4v-226l-24-4v-8h53v170" id="u"/><g id="a"><use transform="matrix(0.05,0,0,0.05,0,0)" xlink:href="#q"/><use transform="matrix(0.05,0,0,0.05,12.950000000000001,0)" xlink:href="#r"/><use transform="matrix(0.05,0,0,0.05,21.950000000000003,0)" xlink:href="#s"/><use transform="matrix(0.05,0,0,0.05,26.950000000000003,0)" xlink:href="#t"/><use transform="matrix(0.05,0,0,0.05,34.900000000000006,0)" xlink:href="#u"/></g><path d="M55 0v-9l38-5v-207c-22 1-53 0-70 4l-5 37H7v-56h207v56h-12l-5-37-70-3v206l37 5v9H55" id="v"/><path d="M84-170c49 0 66 33 63 87H46c-8 60 38 80 95 63v10C128-2 108 4 88 4 34 4 14-29 14-84c-1-54 22-86 70-86zm33 73c12-57-57-82-69-24-1 7-2 15-2 24h71" id="w"/><path d="M126-118c4-37-42-32-68-25v131l24 4v8H8C5-13 21-9 28-12v-141c-7-3-23 1-20-12h48l1 13c22-15 77-30 92 2 32-22 104-36 104 29v109c8 3 24-2 21 12h-75v-8l25-4v-106c3-39-45-31-72-24 7 37 1 88 3 130l25 4v8h-78v-8l24-4v-106" id="x"/><path d="M166-85c3 67-44 102-111 85l1 64 29 4v9H6v-9l21-4v-217c-7-3-22 1-19-12h46l1 9c11-8 26-14 45-14 47 2 64 36 66 85zM56-13c53 14 83-14 78-72 7-53-33-79-78-60v132" id="y"/><path d="M65-12l28 4v8H7v-8l28-4v-226l-28-4v-8h58v238" id="z"/><path d="M32-163c41-10 102-14 102 39v112c8 3 24-2 21 12h-45l-4-17C83 13 3 13 13-46c-2-50 45-50 92-51 4-36-5-70-42-56-6 2-12 4-16 6-4 7 0 23-15 20v-36zM42-47c0 41 41 33 63 22v-59c-34 1-63-1-63 37" id="A"/><path d="M54-38c-1 25 24 26 44 20v12C71 10 25 9 25-35v-115H4c-2-14 14-10 21-15l18-38h11v38h38v15H54v112" id="B"/><g id="b"><use transform="matrix(0.05,0,0,0.05,0,0)" xlink:href="#v"/><use transform="matrix(0.05,0,0,0.05,9.700000000000001,0)" xlink:href="#w"/><use transform="matrix(0.05,0,0,0.05,17.650000000000002,0)" xlink:href="#x"/><use transform="matrix(0.05,0,0,0.05,31.650000000000002,0)" xlink:href="#y"/><use transform="matrix(0.05,0,0,0.05,40.650000000000006,0)" xlink:href="#z"/><use transform="matrix(0.05,0,0,0.05,45.650000000000006,0)" xlink:href="#A"/><use transform="matrix(0.05,0,0,0.05,53.6,0)" xlink:href="#B"/><use transform="matrix(0.05,0,0,0.05,58.6,0)" xlink:href="#w"/></g><path d="M199-173c-1 36-21 56-49 65l64 94 26 5v9h-57l-66-103H75v89l35 5v9H13v-9l28-5v-208l-31-4v-10c80 4 190-20 189 63zM75-119c50 2 89-1 89-51 0-49-39-52-89-50v101" id="C"/><path d="M13-81c0-71 46-101 114-85l-1-72-28-4v-8h57v238c8 3 24-2 21 12h-47l-2-12C80 23 13-1 13-81zm77-74c-37 1-44 33-45 74 0 38 9 66 45 66 14 0 27-3 36-7v-130c-10-1-24-3-36-3" id="D"/><path d="M57-145c16-10 35-24 60-25v45c-19 1-8-30-40-17l-20 6v124l29 4v8H7v-8l21-4v-141c-8-3-24 2-21-12h48" id="E"/><path d="M90-170c52 0 76 32 76 87 0 54-24 87-77 87-51 0-75-34-75-87 0-54 24-87 76-87zM89-10c39 0 46-35 46-73 0-39-7-73-46-73-39 1-44 34-44 73s6 72 44 73" id="F"/><path d="M10 0v-9l31-5v-208l-31-4v-10h95v10l-30 4v93h110v-93l-30-4v-10h94v10l-30 4v208l30 5v9h-94v-9l30-5v-99H75v99l30 5v9H10" id="G"/><path d="M75-108c48 3 76-12 76-58s-28-57-76-54v112zm111-58c-1 60-46 78-111 74v78l37 5v9H13v-9l28-5v-208l-31-4v-10c81 1 178-14 176 70" id="H"/><path d="M178-68c0 79-95 82-154 59v-54h12c1 35 22 52 60 52 50 0 69-58 33-82-39-24-105-21-105-85 0-67 86-66 142-53v49h-12l-6-29c-31-27-121-7-89 42 28 43 119 24 119 101" id="I"/><g id="c"><use transform="matrix(0.05,0,0,0.05,0,0)" xlink:href="#C"/><use transform="matrix(0.05,0,0,0.05,12,0)" xlink:href="#w"/><use transform="matrix(0.05,0,0,0.05,19.95,0)" xlink:href="#D"/><use transform="matrix(0.05,0,0,0.05,28.950000000000003,0)" xlink:href="#s"/><use transform="matrix(0.05,0,0,0.05,33.95,0)" xlink:href="#E"/><use transform="matrix(0.05,0,0,0.05,39.900000000000006,0)" xlink:href="#w"/><use transform="matrix(0.05,0,0,0.05,47.85000000000001,0)" xlink:href="#t"/><use transform="matrix(0.05,0,0,0.05,55.80000000000001,0)" xlink:href="#B"/><use transform="matrix(0.05,0,0,0.05,60.80000000000001,0)" xlink:href="#v"/><use transform="matrix(0.05,0,0,0.05,70.50000000000001,0)" xlink:href="#F"/><use transform="matrix(0.05,0,0,0.05,79.50000000000001,0)" xlink:href="#G"/><use transform="matrix(0.05,0,0,0.05,92.45000000000002,0)" xlink:href="#v"/><use transform="matrix(0.05,0,0,0.05,103.40000000000003,0)" xlink:href="#v"/><use transform="matrix(0.05,0,0,0.05,114.35000000000002,0)" xlink:href="#H"/><use transform="matrix(0.05,0,0,0.05,124.35000000000002,0)" xlink:href="#I"/></g><path d="M111-226l-36 4v207c33-1 73 2 101-4l11-49h11l-3 68H10v-9l31-5v-208l-31-4v-10h101v10" id="J"/><path d="M141-152c28 39 5 97-54 97-9 0-20-2-27-3L49-35c29 22 130-14 124 52-4 45-38 57-88 61C21 83-8 26 45-2 33-6 22-15 21-31l28-31c-19-9-28-26-28-51-2-51 53-65 100-52l38-20 7 8zM85 64c35 0 61-11 61-42 0-35-57-17-89-21-9 8-16 19-17 34 0 25 19 29 45 29zM52-113c1 26 7 46 35 44 28-1 34-16 35-44 0-26-6-43-34-43s-36 17-36 43" id="K"/><path d="M125-118c4-37-41-34-68-26v132l23 4v8H8C5-13 21-9 28-12v-141c-7-3-23 1-20-12h47l2 13c31-23 98-29 98 31v109c7 3 23-1 20 12h-72v-8l22-4v-106" id="L"/><path d="M13-82c-2-68 46-101 114-84 8-3 15-8 28-7V64l18 4v9h-70v-9l23-4c1-25-2-53 2-75-11 8-27 15-47 15-49-1-66-35-68-86zm113-70c-53-13-86 12-81 70-6 54 34 80 81 61v-131" id="M"/><g id="d"><use transform="matrix(0.05,0,0,0.05,0,0)" xlink:href="#J"/><use transform="matrix(0.05,0,0,0.05,10.950000000000001,0)" xlink:href="#F"/><use transform="matrix(0.05,0,0,0.05,19.950000000000003,0)" xlink:href="#K"/><use transform="matrix(0.05,0,0,0.05,28.950000000000003,0)" xlink:href="#s"/><use transform="matrix(0.05,0,0,0.05,33.95,0)" xlink:href="#L"/><use transform="matrix(0.05,0,0,0.05,42.95,0)" xlink:href="#C"/><use transform="matrix(0.05,0,0,0.05,54.95,0)" xlink:href="#w"/><use transform="matrix(0.05,0,0,0.05,62.900000000000006,0)" xlink:href="#M"/><use transform="matrix(0.05,0,0,0.05,71.9,0)" xlink:href="#r"/><use transform="matrix(0.05,0,0,0.05,80.9,0)" xlink:href="#s"/><use transform="matrix(0.05,0,0,0.05,85.9,0)" xlink:href="#E"/><use transform="matrix(0.05,0,0,0.05,91.85000000000001,0)" xlink:href="#w"/><use transform="matrix(0.05,0,0,0.05,99.80000000000001,0)" xlink:href="#D"/></g><path d="M81-9v9H4v-9l26-5 81-224h33l83 224 30 5v9h-99v-9l31-5-23-68H73L49-14zm38-203L78-98h82" id="N"/><path d="M126-119c3-38-42-31-69-25v132l23 4v8H7v-8l21-4v-226l-24-4v-8h53l-1 98c31-22 99-31 99 31v109c7 3 23-1 20 12h-71v-8l22-4v-107" id="O"/><path d="M41-130c7 48 86 23 86 84 0 56-69 57-112 41v-40c20 0 9 29 31 31 35 19 77-26 41-50-27-18-72-13-72-59 0-50 58-52 100-41v36c-19 1-8-25-28-25-21-7-50-1-46 23" id="P"/><g id="e"><use transform="matrix(0.05,0,0,0.05,0,0)" xlink:href="#I"/><use transform="matrix(0.05,0,0,0.05,10,0)" xlink:href="#w"/><use transform="matrix(0.05,0,0,0.05,17.95,0)" xlink:href="#B"/><use transform="matrix(0.05,0,0,0.05,22.95,0)" xlink:href="#N"/><use transform="matrix(0.05,0,0,0.05,35.9,0)" xlink:href="#r"/><use transform="matrix(0.05,0,0,0.05,44.9,0)" xlink:href="#B"/><use transform="matrix(0.05,0,0,0.05,49.9,0)" xlink:href="#O"/><use transform="matrix(0.05,0,0,0.05,58.900000000000006,0)" xlink:href="#w"/><use transform="matrix(0.05,0,0,0.05,66.85,0)" xlink:href="#L"/><use transform="matrix(0.05,0,0,0.05,75.85,0)" xlink:href="#B"/><use transform="matrix(0.05,0,0,0.05,80.85,0)" xlink:href="#s"/><use transform="matrix(0.05,0,0,0.05,85.85,0)" xlink:href="#t"/><use transform="matrix(0.05,0,0,0.05,93.8,0)" xlink:href="#A"/><use transform="matrix(0.05,0,0,0.05,101.75,0)" xlink:href="#B"/><use transform="matrix(0.05,0,0,0.05,106.75,0)" xlink:href="#w"/><use transform="matrix(0.05,0,0,0.05,114.7,0)" xlink:href="#D"/><use transform="matrix(0.05,0,0,0.05,123.7,0)" xlink:href="#I"/><use transform="matrix(0.05,0,0,0.05,133.7,0)" xlink:href="#w"/><use transform="matrix(0.05,0,0,0.05,141.64999999999998,0)" xlink:href="#P"/><use transform="matrix(0.05,0,0,0.05,148.64999999999998,0)" xlink:href="#P"/><use transform="matrix(0.05,0,0,0.05,155.64999999999998,0)" xlink:href="#s"/><use transform="matrix(0.05,0,0,0.05,160.64999999999998,0)" xlink:href="#F"/><use transform="matrix(0.05,0,0,0.05,169.64999999999998,0)" xlink:href="#L"/></g><path d="M52-115c0 90 69 126 140 93v-67l-30-5v-9h87v9l-23 5v77c-27 8-56 16-90 16C59 2 15-37 15-115c-1-82 41-123 122-123 31 0 59 4 83 10v51h-12l-5-29c-15-12-38-18-65-18-66-1-86 42-86 109" id="Q"/><g id="f"><use transform="matrix(0.05,0,0,0.05,0,0)" xlink:href="#Q"/><use transform="matrix(0.05,0,0,0.05,12.950000000000001,0)" xlink:href="#w"/><use transform="matrix(0.05,0,0,0.05,20.900000000000002,0)" xlink:href="#B"/><use transform="matrix(0.05,0,0,0.05,25.900000000000002,0)" xlink:href="#N"/><use transform="matrix(0.05,0,0,0.05,38.85,0)" xlink:href="#r"/><use transform="matrix(0.05,0,0,0.05,47.85,0)" xlink:href="#B"/><use transform="matrix(0.05,0,0,0.05,52.85,0)" xlink:href="#O"/><use transform="matrix(0.05,0,0,0.05,61.85,0)" xlink:href="#w"/><use transform="matrix(0.05,0,0,0.05,69.8,0)" xlink:href="#L"/><use transform="matrix(0.05,0,0,0.05,78.8,0)" xlink:href="#B"/><use transform="matrix(0.05,0,0,0.05,83.8,0)" xlink:href="#s"/><use transform="matrix(0.05,0,0,0.05,88.8,0)" xlink:href="#t"/><use transform="matrix(0.05,0,0,0.05,96.75,0)" xlink:href="#A"/><use transform="matrix(0.05,0,0,0.05,104.7,0)" xlink:href="#B"/><use transform="matrix(0.05,0,0,0.05,109.7,0)" xlink:href="#w"/><use transform="matrix(0.05,0,0,0.05,117.65,0)" xlink:href="#D"/><use transform="matrix(0.05,0,0,0.05,126.65,0)" xlink:href="#I"/><use transform="matrix(0.05,0,0,0.05,136.65,0)" xlink:href="#w"/><use transform="matrix(0.05,0,0,0.05,144.6,0)" xlink:href="#P"/><use transform="matrix(0.05,0,0,0.05,151.6,0)" xlink:href="#P"/><use transform="matrix(0.05,0,0,0.05,158.6,0)" xlink:href="#s"/><use transform="matrix(0.05,0,0,0.05,163.6,0)" xlink:href="#F"/><use transform="matrix(0.05,0,0,0.05,172.6,0)" xlink:href="#L"/></g><path d="M52-115c0 93 80 130 150 87l7-35h11l-1 55c-23 7-52 12-83 12C60 4 19-37 15-115c-5-113 97-141 201-114l1 51h-12l-5-30c-15-9-39-16-62-16-66 0-86 41-86 109" id="R"/><path d="M75-106v92l39 5v9H13v-9l28-5v-208l-31-4v-10h177v57h-11l-6-38c-28-4-63-3-95-3v98h69l5-28h11v73h-11l-5-29H75" id="S"/><g id="g"><use transform="matrix(0.05,0,0,0.05,0,0)" xlink:href="#R"/><use transform="matrix(0.05,0,0,0.05,12,0)" xlink:href="#I"/><use transform="matrix(0.05,0,0,0.05,22,0)" xlink:href="#C"/><use transform="matrix(0.05,0,0,0.05,34,0)" xlink:href="#S"/></g><g id="h"><use transform="matrix(0.05,0,0,0.05,0,0)" xlink:href="#R"/><use transform="matrix(0.05,0,0,0.05,12,0)" xlink:href="#F"/><use transform="matrix(0.05,0,0,0.05,21,0)" xlink:href="#L"/><use transform="matrix(0.05,0,0,0.05,30,0)" xlink:href="#B"/><use transform="matrix(0.05,0,0,0.05,35,0)" xlink:href="#E"/><use transform="matrix(0.05,0,0,0.05,40.95,0)" xlink:href="#F"/><use transform="matrix(0.05,0,0,0.05,49.95,0)" xlink:href="#z"/><use transform="matrix(0.05,0,0,0.05,54.95,0)" xlink:href="#z"/><use transform="matrix(0.05,0,0,0.05,59.95,0)" xlink:href="#w"/><use transform="matrix(0.05,0,0,0.05,67.9,0)" xlink:href="#E"/></g><g id="i"><use transform="matrix(0.05,0,0,0.05,0,0)" xlink:href="#H"/><use transform="matrix(0.05,0,0,0.05,10,0)" xlink:href="#F"/><use transform="matrix(0.05,0,0,0.05,19,0)" xlink:href="#P"/><use transform="matrix(0.05,0,0,0.05,26,0)" xlink:href="#B"/><use transform="matrix(0.05,0,0,0.05,31,0)" xlink:href="#K"/><use transform="matrix(0.05,0,0,0.05,40,0)" xlink:href="#E"/><use transform="matrix(0.05,0,0,0.05,45.95,0)" xlink:href="#w"/><use transform="matrix(0.05,0,0,0.05,53.900000000000006,0)" xlink:href="#I"/><use transform="matrix(0.05,0,0,0.05,63.900000000000006,0)" xlink:href="#q"/><use transform="matrix(0.05,0,0,0.05,76.85000000000001,0)" xlink:href="#J"/></g><g id="j"><use transform="matrix(0.05,0,0,0.05,0,0)" xlink:href="#I"/><use transform="matrix(0.05,0,0,0.05,10,0)" xlink:href="#q"/><use transform="matrix(0.05,0,0,0.05,22.950000000000003,0)" xlink:href="#J"/><use transform="matrix(0.05,0,0,0.05,33.900000000000006,0)" xlink:href="#R"/></g><path d="M106-76c4 61-43 93-98 74v-43h11c2 18 5 33 28 33 16 0 25-11 25-33v-177l-30-4v-10h91v10l-27 4v146" id="T"/><path d="M130-224c-62 0-78 43-78 106 0 64 16 108 78 108s78-45 78-108-16-106-78-106zm0 228C53 4 15-39 15-118c-1-80 37-120 115-120s115 42 115 120C245-39 207 4 130 4" id="U"/><path d="M203-222l-32-4v-10h81v10l-31 4V0h-17L59-212v198l32 5v9H10v-9l31-5v-208l-31-4v-10h72L203-61v-161" id="V"/><g id="k"><use transform="matrix(0.05,0,0,0.05,0,0)" xlink:href="#T"/><use transform="matrix(0.05,0,0,0.05,7,0)" xlink:href="#I"/><use transform="matrix(0.05,0,0,0.05,17,0)" xlink:href="#U"/><use transform="matrix(0.05,0,0,0.05,29.950000000000003,0)" xlink:href="#V"/><use transform="matrix(0.05,0,0,0.05,42.900000000000006,0)" xlink:href="#C"/><use transform="matrix(0.05,0,0,0.05,54.900000000000006,0)" xlink:href="#H"/><use transform="matrix(0.05,0,0,0.05,64.9,0)" xlink:href="#R"/></g><path d="M164-154L98 4H85L17-153c-7-3-20 0-17-12h77v8l-26 4L99-38l46-115-26-4v-8h61v8" id="W"/><g id="l"><use transform="matrix(0.05,0,0,0.05,0,0)" xlink:href="#I"/><use transform="matrix(0.05,0,0,0.05,10,0)" xlink:href="#w"/><use transform="matrix(0.05,0,0,0.05,17.95,0)" xlink:href="#E"/><use transform="matrix(0.05,0,0,0.05,23.9,0)" xlink:href="#W"/><use transform="matrix(0.05,0,0,0.05,32.9,0)" xlink:href="#s"/><use transform="matrix(0.05,0,0,0.05,37.9,0)" xlink:href="#t"/><use transform="matrix(0.05,0,0,0.05,45.85,0)" xlink:href="#w"/></g><path d="M134-16c44-1 70-21 70-64v-142l-32-4v-10h80v10l-30 4v141c0 57-33 84-91 85-58 0-93-26-93-82v-144l-30-4v-10h94v10l-30 4c7 82-31 209 62 206" id="X"/><g id="m"><use transform="matrix(0.05,0,0,0.05,0,0)" xlink:href="#X"/><use transform="matrix(0.05,0,0,0.05,12.950000000000001,0)" xlink:href="#P"/><use transform="matrix(0.05,0,0,0.05,19.950000000000003,0)" xlink:href="#w"/><use transform="matrix(0.05,0,0,0.05,27.900000000000002,0)" xlink:href="#E"/></g><path d="M77-14l30 5v9H13v-9l30-5v-208l-30-4v-10h94v10l-30 4v208" id="Y"/><path d="M19-231c61-19 146-3 123 76-8 29-32 42-62 48l-3 45H63l-4-58c33-4 57-15 54-56 6-47-42-58-77-39l-6 29H19v-45zM72-37c14 0 21 9 21 21S84 5 72 5 50-2 51-16c0-13 8-21 21-21" id="Z"/><g id="n"><use transform="matrix(0.05,0,0,0.05,0,0)" xlink:href="#N"/><use transform="matrix(0.05,0,0,0.05,12.950000000000001,0)" xlink:href="#H"/><use transform="matrix(0.05,0,0,0.05,22.950000000000003,0)" xlink:href="#Y"/><use transform="matrix(0.05,0,0,0.05,28.900000000000002,0)" xlink:href="#Z"/></g><path d="M147-93v79l38 5v9H76v-9l37-5v-78L31-222l-27-4v-10h100v10l-32 4 68 109 64-109-30-4v-10h77v10l-26 4" id="aa"/><g id="o"><use transform="matrix(0.05,0,0,0.05,0,0)" xlink:href="#aa"/><use transform="matrix(0.05,0,0,0.05,11.15,0)" xlink:href="#w"/><use transform="matrix(0.05,0,0,0.05,19.1,0)" xlink:href="#P"/></g><g id="p"><use transform="matrix(0.05,0,0,0.05,0,0)" xlink:href="#V"/><use transform="matrix(0.05,0,0,0.05,12.950000000000001,0)" xlink:href="#F"/></g></defs></g></svg>